<svg width="50" height="50" viewBox="0 0 50 50" fill="none" xmlns="http://www.w3.org/2000/svg">
<path d="M0.5 8C0.5 3.85787 3.85786 0.5 8 0.5H42C46.1421 0.5 49.5 3.85786 49.5 8V42C49.5 46.1421 46.1421 49.5 42 49.5H8C3.85787 49.5 0.5 46.1421 0.5 42V8Z" fill="white" stroke="#E5E5E5"/>
<g clip-path="url(#clip0_1_298)">
<path d="M23.6543 9.668L9.669 23.6415C9.49016 23.8197 9.34825 24.0314 9.25142 24.2645C9.15459 24.4976 9.10475 24.7476 9.10475 25C9.10475 25.2524 9.15459 25.5024 9.25142 25.7355C9.34825 25.9686 9.49016 26.1803 9.669 26.3585L23.6543 40.332C23.8327 40.5105 24.0445 40.6522 24.2776 40.7488C24.5108 40.8454 24.7607 40.8952 25.0131 40.8952C25.2655 40.8952 25.5154 40.8454 25.7486 40.7488C25.9818 40.6522 26.1936 40.5105 26.372 40.332L32.2362 34.4727C32.3963 34.3128 32.5232 34.1229 32.6098 33.9138C32.6964 33.7048 32.741 33.4808 32.741 33.2545C32.741 33.0282 32.6964 32.8042 32.6098 32.5952C32.5232 32.3861 32.3963 32.1962 32.2362 32.0362C31.9128 31.7131 31.4742 31.5315 31.017 31.5315C30.5598 31.5315 30.1212 31.7131 29.7978 32.0362L25.3528 36.4775C25.1653 36.665 24.8807 36.665 24.6943 36.4775L13.5255 25.3193C13.3388 25.1318 13.3388 24.8478 13.5255 24.6613L24.6943 13.502C24.8807 13.3155 25.165 13.3155 25.3525 13.502L29.7978 17.9433C30.1212 18.2664 30.5598 18.448 31.017 18.448C31.4742 18.448 31.9128 18.2664 32.2362 17.9433C32.3963 17.7833 32.5232 17.5934 32.6098 17.3843C32.6964 17.1753 32.741 16.9513 32.741 16.725C32.741 16.4987 32.6964 16.2747 32.6098 16.0657C32.5232 15.8566 32.3963 15.6667 32.2362 15.5068L26.373 9.6485C25.618 8.914 24.4032 8.92 23.6543 9.668Z" fill="url(#paint0_linear_1_298)"/>
<path d="M23.6543 9.668L9.669 23.6415C9.49016 23.8197 9.34825 24.0314 9.25142 24.2645C9.15459 24.4976 9.10475 24.7476 9.10475 25C9.10475 25.2524 9.15459 25.5024 9.25142 25.7355C9.34825 25.9686 9.49016 26.1803 9.669 26.3585L23.6543 40.332C23.8327 40.5105 24.0445 40.6522 24.2776 40.7488C24.5108 40.8454 24.7607 40.8952 25.0131 40.8952C25.2655 40.8952 25.5154 40.8454 25.7486 40.7488C25.9818 40.6522 26.1936 40.5105 26.372 40.332L32.2362 34.4727C32.3963 34.3128 32.5232 34.1229 32.6098 33.9138C32.6964 33.7048 32.741 33.4808 32.741 33.2545C32.741 33.0282 32.6964 32.8042 32.6098 32.5952C32.5232 32.3861 32.3963 32.1962 32.2362 32.0362C31.9128 31.7131 31.4742 31.5315 31.017 31.5315C30.5598 31.5315 30.1212 31.7131 29.7978 32.0362L25.3528 36.4775C25.1653 36.665 24.8807 36.665 24.6943 36.4775L13.5255 25.3193C13.3388 25.1318 13.3388 24.8478 13.5255 24.6613L24.6943 13.502C25.1602 13.1005 25.92 12.287 27.037 12.0968C27.8665 11.9553 28.7734 12.2664 29.7577 13.0303C29.0997 12.3723 27.9715 11.245 26.373 9.6485C25.618 8.914 24.4032 8.92 23.6543 9.668Z" fill="url(#paint1_linear_1_298)"/>
<path d="M33.59 30.7363C33.9134 31.0594 34.3519 31.2409 34.8091 31.2409C35.2663 31.2409 35.7048 31.0594 36.0282 30.7363L40.3535 26.415C40.5322 26.2369 40.6741 26.0253 40.7708 25.7923C40.8676 25.5593 40.9174 25.3094 40.9174 25.0571C40.9174 24.8048 40.8676 24.555 40.7708 24.322C40.6741 24.0889 40.5322 23.8773 40.3535 23.6993L35.9902 19.3545C35.666 19.0317 35.2269 18.8507 34.7694 18.8513C34.3118 18.8519 33.8732 19.0339 33.5497 19.3575C33.3895 19.5174 33.2624 19.7072 33.1757 19.9163C33.089 20.1253 33.0444 20.3494 33.0444 20.5758C33.0444 20.8021 33.089 21.0262 33.1757 21.2352C33.2624 21.4443 33.3895 21.6341 33.5497 21.794L36.4972 24.7383C36.5414 24.7808 36.5765 24.8319 36.6005 24.8883C36.6245 24.9448 36.6369 25.0055 36.6369 25.0669C36.6369 25.1282 36.6245 25.1889 36.6005 25.2454C36.5765 25.3019 36.5414 25.3529 36.4972 25.3955L33.5898 28.3008C33.4296 28.4605 33.3025 28.6503 33.2158 28.8593C33.1291 29.0683 33.0844 29.2923 33.0844 29.5185C33.0844 29.7447 33.1291 29.9688 33.2158 30.1777C33.3025 30.3867 33.4298 30.5765 33.59 30.7363Z" fill="url(#paint2_linear_1_298)"/>
<path fill-rule="evenodd" clip-rule="evenodd" d="M28.8595 25.0703C28.8595 22.9863 27.169 21.2968 25.083 21.2968C22.998 21.2968 21.3068 22.9863 21.3068 25.0703C21.3068 27.1533 22.998 28.8428 25.083 28.8428C27.169 28.8428 28.8595 27.1533 28.8595 25.0703Z" fill="url(#paint3_linear_1_298)"/>
</g>
<defs>
<linearGradient id="paint0_linear_1_298" x1="23.7823" y1="9.1015" x2="37.0767" y2="17.2269" gradientUnits="userSpaceOnUse">
<stop stop-color="#4285EB"/>
<stop offset="1" stop-color="#2EC7FF"/>
</linearGradient>
<linearGradient id="paint1_linear_1_298" x1="25.555" y1="9.1015" x2="18.9912" y2="43.0405" gradientUnits="userSpaceOnUse">
<stop stop-color="#29CDFF"/>
<stop offset="0.379" stop-color="#148EFF"/>
<stop offset="1" stop-color="#0A60FF"/>
</linearGradient>
<linearGradient id="paint2_linear_1_298" x1="38.5315" y1="17.2398" x2="29.9866" y2="30.5995" gradientUnits="userSpaceOnUse">
<stop stop-color="#FA816E"/>
<stop offset="0.415" stop-color="#F74A5C"/>
<stop offset="1" stop-color="#F51D2C"/>
</linearGradient>
<linearGradient id="paint3_linear_1_298" x1="26.4502" y1="18.6031" x2="23.6076" y2="29.9685" gradientUnits="userSpaceOnUse">
<stop stop-color="#FA8E7D"/>
<stop offset="0.513" stop-color="#F74A5C"/>
<stop offset="1" stop-color="#F51D2C"/>
</linearGradient>
<clipPath id="clip0_1_298">
<rect width="32" height="32" fill="white" transform="translate(9 9)"/>
</clipPath>
</defs>
</svg>
