<svg width="50" height="50" viewBox="0 0 50 50" fill="none" xmlns="http://www.w3.org/2000/svg">
<rect x="0.5" y="0.5" width="49" height="49" rx="7.5" fill="white" stroke="#E5E5E5"/>
<g clip-path="url(#clip0_1_283)">
<path d="M19 42C22.312 42 25 39.4613 25 36.3333V30.6667H19C15.688 30.6667 13 33.2053 13 36.3333C13 39.4613 15.688 42 19 42Z" fill="#0ACF83"/>
<path d="M13 25C13 21.872 15.688 19.3333 19 19.3333H25V30.6667H19C15.688 30.6667 13 28.128 13 25Z" fill="#A259FF"/>
<path d="M13 13.6667C13 10.5387 15.688 8 19 8H25V19.3333H19C15.688 19.3333 13 16.7947 13 13.6667Z" fill="#F24E1E"/>
<path d="M25 8H31C34.312 8 37 10.5387 37 13.6667C37 16.7947 34.312 19.3333 31 19.3333H25V8Z" fill="#FF7262"/>
<path d="M37 25C37 28.128 34.312 30.6667 31 30.6667C27.688 30.6667 25 28.128 25 25C25 21.872 27.688 19.3333 31 19.3333C34.312 19.3333 37 21.872 37 25Z" fill="#1ABCFE"/>
</g>
<defs>
<clipPath id="clip0_1_283">
<rect width="24" height="34" fill="white" transform="translate(13 8)"/>
</clipPath>
</defs>
</svg>
