<svg width="50" height="50" viewBox="0 0 50 50" fill="none" xmlns="http://www.w3.org/2000/svg">
<path d="M0.5 8C0.5 3.85787 3.85786 0.5 8 0.5H42C46.1421 0.5 49.5 3.85786 49.5 8V42C49.5 46.1421 46.1421 49.5 42 49.5H8C3.85787 49.5 0.5 46.1421 0.5 42V8Z" fill="white" stroke="#E5E5E5"/>
<g clip-path="url(#clip0_1_279)">
<path d="M25.001 14.4005C20.7343 14.4005 18.0685 16.533 17.001 20.7997C18.6005 18.667 20.4678 17.8672 22.6005 18.4005C23.8183 18.704 24.6885 19.587 25.6523 20.5655C27.2208 22.1572 29.0363 24 33.001 24C37.2675 24 39.9335 21.8672 41.001 17.5995C39.401 19.7333 37.5344 20.5335 35.4013 20C34.1838 19.6962 33.3145 18.8135 32.3495 17.835C30.782 16.2432 28.967 14.4005 25.001 14.4005ZM17.001 24C12.7345 24 10.0685 26.1327 9.00101 30.4005C10.6008 28.2667 12.4673 27.4665 14.6005 28C15.8183 28.3037 16.6885 29.1865 17.6523 30.165C19.2208 31.7567 21.0363 33.5995 25.001 33.5995C29.2675 33.5995 31.9335 31.467 33.001 27.2002C31.401 29.3331 29.5344 30.1328 27.4013 29.5995C26.1838 29.296 25.3145 28.413 24.3495 27.4345C22.782 25.8427 20.967 24 17.001 24Z" fill="#38BDF8"/>
</g>
<defs>
<clipPath id="clip0_1_279">
<rect width="32" height="32" fill="white" transform="translate(9 8)"/>
</clipPath>
</defs>
</svg>
