<svg width="50" height="50" viewBox="0 0 50 50" fill="none" xmlns="http://www.w3.org/2000/svg">
<path d="M0.5 8C0.5 3.85787 3.85786 0.5 8 0.5H42C46.1421 0.5 49.5 3.85786 49.5 8V42C49.5 46.1421 46.1421 49.5 42 49.5H8C3.85787 49.5 0.5 46.1421 0.5 42V8Z" fill="#1B1919" stroke="#353333"/>
<g clip-path="url(#clip0_257_57)">
<path d="M23.6542 9.66778L9.66899 23.6413C9.49014 23.8194 9.34824 24.0311 9.25141 24.2643C9.15458 24.4974 9.10474 24.7473 9.10474 24.9998C9.10474 25.2522 9.15458 25.5022 9.25141 25.7353C9.34824 25.9684 9.49014 26.1801 9.66899 26.3583L23.6542 40.3318C23.8326 40.5103 24.0445 40.6519 24.2776 40.7486C24.5108 40.8452 24.7607 40.8949 25.0131 40.8949C25.2655 40.8949 25.5154 40.8452 25.7486 40.7486C25.9818 40.6519 26.1936 40.5103 26.372 40.3318L32.2362 34.4725C32.3963 34.3126 32.5232 34.1227 32.6098 33.9136C32.6964 33.7046 32.741 33.4805 32.741 33.2543C32.741 33.028 32.6964 32.804 32.6098 32.5949C32.5232 32.3859 32.3963 32.196 32.2362 32.036C31.9128 31.7128 31.4742 31.5313 31.017 31.5313C30.5597 31.5313 30.1212 31.7128 29.7977 32.036L25.3527 36.4773C25.1652 36.6648 24.8807 36.6648 24.6942 36.4773L13.5255 25.319C13.3387 25.1315 13.3387 24.8475 13.5255 24.661L24.6942 13.5018C24.8807 13.3153 25.165 13.3153 25.3525 13.5018L29.7977 17.943C30.1212 18.2662 30.5597 18.4478 31.017 18.4478C31.4742 18.4478 31.9128 18.2662 32.2362 17.943C32.3963 17.7831 32.5232 17.5932 32.6098 17.3841C32.6964 17.1751 32.741 16.951 32.741 16.7248C32.741 16.4985 32.6964 16.2745 32.6098 16.0654C32.5232 15.8564 32.3963 15.6665 32.2362 15.5065L26.373 9.64828C25.618 8.91378 24.4032 8.91978 23.6542 9.66778Z" fill="url(#paint0_linear_257_57)"/>
<path d="M23.6542 9.66778L9.66899 23.6413C9.49014 23.8194 9.34824 24.0311 9.25141 24.2643C9.15458 24.4974 9.10474 24.7473 9.10474 24.9998C9.10474 25.2522 9.15458 25.5022 9.25141 25.7353C9.34824 25.9684 9.49014 26.1801 9.66899 26.3583L23.6542 40.3318C23.8326 40.5103 24.0445 40.6519 24.2776 40.7486C24.5108 40.8452 24.7607 40.8949 25.0131 40.8949C25.2655 40.8949 25.5154 40.8452 25.7486 40.7486C25.9818 40.6519 26.1936 40.5103 26.372 40.3318L32.2362 34.4725C32.3963 34.3126 32.5232 34.1227 32.6098 33.9136C32.6964 33.7046 32.741 33.4805 32.741 33.2543C32.741 33.028 32.6964 32.804 32.6098 32.5949C32.5232 32.3859 32.3963 32.196 32.2362 32.036C31.9128 31.7128 31.4742 31.5313 31.017 31.5313C30.5597 31.5313 30.1212 31.7128 29.7977 32.036L25.3527 36.4773C25.1652 36.6648 24.8807 36.6648 24.6942 36.4773L13.5255 25.319C13.3387 25.1315 13.3387 24.8475 13.5255 24.661L24.6942 13.5018C25.1602 13.1003 25.92 12.2868 27.037 12.0965C27.8665 11.955 28.7734 12.2662 29.7577 13.03C29.0997 12.372 27.9715 11.2448 26.373 9.64828C25.618 8.91378 24.4032 8.91978 23.6542 9.66778Z" fill="url(#paint1_linear_257_57)"/>
<path d="M33.59 30.736C33.9135 31.0591 34.352 31.2406 34.8091 31.2406C35.2663 31.2406 35.7048 31.0591 36.0283 30.736L40.3535 26.4148C40.5323 26.2367 40.6741 26.0251 40.7709 25.7921C40.8676 25.559 40.9174 25.3092 40.9174 25.0569C40.9174 24.8046 40.8676 24.5548 40.7709 24.3217C40.6741 24.0887 40.5323 23.8771 40.3535 23.699L35.9903 19.3543C35.666 19.0315 35.2269 18.8505 34.7694 18.8511C34.3119 18.8516 33.8732 19.0337 33.5498 19.3573C33.3896 19.5171 33.2625 19.707 33.1757 19.9161C33.089 20.1251 33.0444 20.3492 33.0444 20.5755C33.0444 20.8018 33.089 21.0259 33.1757 21.235C33.2625 21.444 33.3896 21.6339 33.5498 21.7938L36.4973 24.738C36.5414 24.7806 36.5766 24.8317 36.6005 24.8881C36.6245 24.9446 36.6369 25.0053 36.6369 25.0666C36.6369 25.128 36.6245 25.1887 36.6005 25.2452C36.5766 25.3016 36.5414 25.3527 36.4973 25.3953L33.5898 28.3005C33.4296 28.4603 33.3025 28.6501 33.2158 28.8591C33.1291 29.068 33.0845 29.292 33.0845 29.5183C33.0845 29.7445 33.1291 29.9685 33.2158 30.1775C33.3025 30.3864 33.4298 30.5763 33.59 30.736Z" fill="url(#paint2_linear_257_57)"/>
<path fill-rule="evenodd" clip-rule="evenodd" d="M28.8595 25.0704C28.8595 22.9864 27.169 21.2969 25.083 21.2969C22.998 21.2969 21.3068 22.9864 21.3068 25.0704C21.3068 27.1534 22.998 28.8429 25.083 28.8429C27.169 28.8429 28.8595 27.1534 28.8595 25.0704Z" fill="url(#paint3_linear_257_57)"/>
</g>
<defs>
<linearGradient id="paint0_linear_257_57" x1="23.7823" y1="9.10128" x2="37.0767" y2="17.2267" gradientUnits="userSpaceOnUse">
<stop stop-color="#4285EB"/>
<stop offset="1" stop-color="#2EC7FF"/>
</linearGradient>
<linearGradient id="paint1_linear_257_57" x1="25.555" y1="9.10128" x2="18.9912" y2="43.0403" gradientUnits="userSpaceOnUse">
<stop stop-color="#29CDFF"/>
<stop offset="0.379" stop-color="#148EFF"/>
<stop offset="1" stop-color="#0A60FF"/>
</linearGradient>
<linearGradient id="paint2_linear_257_57" x1="38.5315" y1="17.2396" x2="29.9866" y2="30.5992" gradientUnits="userSpaceOnUse">
<stop stop-color="#FA816E"/>
<stop offset="0.415" stop-color="#F74A5C"/>
<stop offset="1" stop-color="#F51D2C"/>
</linearGradient>
<linearGradient id="paint3_linear_257_57" x1="26.4502" y1="18.6032" x2="23.6076" y2="29.9686" gradientUnits="userSpaceOnUse">
<stop stop-color="#FA8E7D"/>
<stop offset="0.513" stop-color="#F74A5C"/>
<stop offset="1" stop-color="#F51D2C"/>
</linearGradient>
<clipPath id="clip0_257_57">
<rect width="32" height="32" fill="white" transform="translate(9 9)"/>
</clipPath>
</defs>
</svg>
