<svg width="50" height="50" viewBox="0 0 50 50" fill="none" xmlns="http://www.w3.org/2000/svg">
<rect x="0.5" y="0.5" width="49" height="49" rx="7.5" fill="#1B1919" stroke="#353333"/>
<g clip-path="url(#clip0_252_44)">
<path d="M19 41.9998C22.312 41.9998 25 39.4612 25 36.3332V30.6665H19C15.688 30.6665 13 33.2052 13 36.3332C13 39.4612 15.688 41.9998 19 41.9998Z" fill="#0ACF83"/>
<path d="M13 25.0002C13 21.8722 15.688 19.3335 19 19.3335H25V30.6668H19C15.688 30.6668 13 28.1282 13 25.0002Z" fill="#A259FF"/>
<path d="M13 13.6667C13 10.5387 15.688 8 19 8H25V19.3333H19C15.688 19.3333 13 16.7947 13 13.6667Z" fill="#F24E1E"/>
<path d="M25 8H31C34.312 8 37 10.5387 37 13.6667C37 16.7947 34.312 19.3333 31 19.3333H25V8Z" fill="#FF7262"/>
<path d="M37 25.0002C37 28.1282 34.312 30.6668 31 30.6668C27.688 30.6668 25 28.1282 25 25.0002C25 21.8722 27.688 19.3335 31 19.3335C34.312 19.3335 37 21.8722 37 25.0002Z" fill="#1ABCFE"/>
</g>
<defs>
<clipPath id="clip0_252_44">
<rect width="24" height="34" fill="white" transform="translate(13 8)"/>
</clipPath>
</defs>
</svg>
