<svg width="50" height="50" viewBox="0 0 50 50" fill="none" xmlns="http://www.w3.org/2000/svg">
<rect x="0.5" y="0.5" width="49" height="49" rx="7.5" fill="#1B1919" stroke="#353333"/>
<g clip-path="url(#clip0_252_45)">
<path d="M33.5 9H16.5C12.3579 9 9 12.3579 9 16.5V33.5C9 37.6421 12.3579 41 16.5 41H33.5C37.6421 41 41 37.6421 41 33.5V16.5C41 12.3579 37.6421 9 33.5 9Z" fill="#E14E1D"/>
<path d="M15 13.75L16.0763 25.8241H29.915L29.4506 31.0029L24.9949 32.2076L20.5475 31.0046L20.2501 27.6794H16.2425L16.8156 34.0895L24.994 36.361L33.1828 34.0895L34.2806 21.8319H19.728L19.3626 17.7431H34.6424L35 13.75H15Z" fill="white"/>
<path d="M25 13.75H15L16.0763 25.8241H25V21.8319H19.728L19.3626 17.7431H25V13.75ZM25 32.2059L24.9949 32.2076L20.5475 31.0046L20.2501 27.6794H16.2425L16.8156 34.0895L24.994 36.361L25.0001 36.3592V32.2059H25Z" fill="#EBEBEB"/>
</g>
<defs>
<clipPath id="clip0_252_45">
<rect width="32" height="32" fill="white" transform="translate(9 9)"/>
</clipPath>
</defs>
</svg>
