<svg width="50" height="50" viewBox="0 0 50 50" fill="none" xmlns="http://www.w3.org/2000/svg">
<path d="M0.5 8C0.5 3.85787 3.85786 0.5 8 0.5H42C46.1421 0.5 49.5 3.85786 49.5 8V42C49.5 46.1421 46.1421 49.5 42 49.5H8C3.85787 49.5 0.5 46.1421 0.5 42V8Z" fill="#1B1919" stroke="#353333"/>
<g clip-path="url(#clip0_257_58)">
<path d="M35.3104 20.4185C34.9698 20.3119 34.6264 20.2132 34.2804 20.1224C34.3385 19.9057 34.392 19.6916 34.4395 19.4814C35.2193 16.0283 34.7095 13.2464 32.9684 12.3305C31.299 11.4524 28.5689 12.368 25.8116 14.5571C25.5399 14.7732 25.2742 14.9956 25.0147 15.224C24.8411 15.0721 24.6643 14.9232 24.4846 14.7773C21.5949 12.4366 18.6984 11.4501 16.9591 12.3687C15.2913 13.2495 14.7974 15.8646 15.4994 19.1372C15.5692 19.4613 15.6481 19.7838 15.7359 20.1042C15.3259 20.2105 14.9302 20.3236 14.5516 20.444C11.1636 21.5217 9 23.2104 9 24.9621C9 26.7713 11.3228 28.5859 14.8515 29.6863C15.1376 29.7751 15.426 29.8574 15.7166 29.9331C15.6223 30.2783 15.5385 30.6258 15.4654 30.9752C14.7961 34.191 15.3187 36.7443 16.9821 37.6196C18.7001 38.5234 21.5836 37.5945 24.3912 35.3554C24.6189 35.1734 24.8416 34.9862 25.059 34.794C25.3399 35.0413 25.6284 35.2814 25.924 35.514C28.6437 37.649 31.3298 38.5111 32.9915 37.6335C34.7079 36.727 35.2658 33.984 34.5415 30.6468C34.4844 30.3853 34.4205 30.1252 34.3496 29.8665C34.5521 29.8118 34.7509 29.7555 34.9446 29.6969C38.6131 28.5881 41 26.7955 41 24.9621C41 23.204 38.7665 21.5039 35.3104 20.4185ZM34.5147 28.5132C34.3398 28.566 34.1602 28.6169 33.9772 28.6665C33.5722 27.4969 33.0257 26.2532 32.3569 24.9682C32.9951 23.7138 33.5206 22.486 33.9142 21.3239C34.2416 21.4104 34.5592 21.5015 34.8655 21.5976C37.8267 22.5277 39.633 23.9026 39.633 24.9621C39.633 26.0906 37.6822 27.5556 34.5147 28.5132ZM33.2005 30.889C33.5208 32.3646 33.5664 33.6988 33.3542 34.7419C33.1637 35.6791 32.7805 36.3039 32.3065 36.5542C31.2981 37.0868 29.1415 36.3946 26.8156 34.5687C26.5407 34.3524 26.2724 34.1292 26.011 33.8993C26.9128 32.9997 27.8139 31.9538 28.6934 30.7923C30.2404 30.6671 31.7019 30.4623 33.0273 30.1828C33.0911 30.4169 33.1489 30.6524 33.2005 30.889ZM19.9095 36.4622C18.9242 36.7796 18.1395 36.7887 17.6651 36.5392C16.6557 36.0081 16.2361 33.9579 16.8085 31.2078C16.8765 30.8829 16.9544 30.5597 17.0421 30.2386C18.3529 30.5032 19.8038 30.6934 21.3544 30.8081C22.2399 31.9447 23.167 32.9894 24.1014 33.9042C23.9028 34.0795 23.6995 34.2503 23.4917 34.4164C22.2501 35.4065 21.006 36.1089 19.9095 36.4622ZM15.2937 28.5062C13.7334 28.0196 12.4448 27.3873 11.5615 26.6973C10.7678 26.0773 10.3671 25.4616 10.3671 24.9621C10.3671 23.8991 12.1042 22.5432 15.0016 21.6217C15.3533 21.5099 15.7213 21.4045 16.1031 21.3055C16.5036 22.4937 17.0289 23.7361 17.6628 24.9925C17.0206 26.2674 16.4879 27.5296 16.0835 28.7319C15.8183 28.6626 15.5549 28.5873 15.2937 28.5062ZM16.841 18.8976C16.2396 16.0938 16.639 13.9788 17.6441 13.448C18.7146 12.8826 21.0819 13.6887 23.577 15.7099C23.7397 15.842 23.8998 15.9768 24.0571 16.1141C23.1274 17.0249 22.2087 18.0619 21.3311 19.1917C19.8261 19.319 18.3855 19.5233 17.061 19.7971C16.9794 19.4991 16.906 19.1991 16.841 18.8976ZM30.6444 22.0071C30.3315 21.5141 30.0071 21.0274 29.6712 20.5471C30.6922 20.6649 31.6705 20.8213 32.5891 21.0124C32.3134 21.8189 31.9696 22.6619 31.565 23.5263C31.2692 23.0144 30.9623 22.5079 30.6444 22.0071ZM25.0154 17.0054C25.6459 17.6286 26.2774 18.3244 26.8985 19.0793C25.6385 19.025 24.3764 19.0248 23.1164 19.0786C23.7381 18.3306 24.375 17.6358 25.0154 17.0054ZM19.3503 22.0157C19.0363 22.5124 18.7351 23.0157 18.4469 23.5253C18.0489 22.664 17.7083 21.817 17.4301 20.9992C18.3431 20.8128 19.3168 20.6605 20.3313 20.5449C19.9917 21.028 19.6646 21.5185 19.3503 22.0157ZM20.3604 29.4681C19.3123 29.3614 18.324 29.2169 17.4113 29.0356C17.6938 28.2031 18.0419 27.3382 18.4485 26.4584C18.7379 26.9683 19.0403 27.4719 19.3556 27.9689C19.6799 28.4798 20.0156 28.9801 20.3604 29.4681ZM25.0531 33.0066C24.4051 32.3689 23.7589 31.6634 23.1278 30.9046C23.7405 30.9265 24.3651 30.9377 25 30.9377C25.6523 30.9377 26.297 30.9243 26.9316 30.8986C26.3085 31.671 25.6794 32.3776 25.0531 33.0066ZM31.5779 26.4134C32.0056 27.3029 32.3661 28.1633 32.6524 28.9815C31.7246 29.1747 30.7229 29.3302 29.6674 29.4458C30.0056 28.9566 30.3331 28.4614 30.6497 27.9603C30.9717 27.451 31.2811 26.9353 31.5779 26.4134ZM29.4656 27.3372C28.9809 28.1054 28.4689 28.859 27.9305 29.5968C26.9552 29.6599 25.9777 29.6912 25 29.6907C24.0041 29.6907 23.0355 29.6624 22.1027 29.6072C21.5503 28.8711 21.0285 28.1162 20.5386 27.3441C20.051 26.5761 19.5957 25.7914 19.1734 24.9919C19.5946 24.1921 20.0487 23.4071 20.5346 22.6385L20.5345 22.6387C21.0202 21.8699 21.5378 21.1182 22.0861 20.3852C23.0378 20.3195 24.0136 20.2853 24.9999 20.2853C25.9906 20.2853 26.9679 20.3199 27.9193 20.386C28.462 21.1179 28.9763 21.867 29.4611 22.6319C29.9487 23.3988 30.4088 24.18 30.8406 24.9742C30.4132 25.7765 29.9546 26.5647 29.4656 27.3372ZM32.2856 13.4108C33.3571 13.9746 33.7739 16.2481 33.1006 19.2296C33.0576 19.4198 33.0094 19.6135 32.9569 19.81C31.6291 19.5304 30.1875 19.3225 28.6781 19.1933C27.7989 18.051 26.8878 17.0125 25.9731 16.1135C26.2128 15.9027 26.4582 15.6973 26.7091 15.4977C29.0716 13.6221 31.2796 12.8816 32.2856 13.4108ZM25 22.3553C26.5781 22.3553 27.8575 23.5224 27.8575 24.9621C27.8575 26.4018 26.5781 27.569 25 27.569C23.4219 27.569 22.1425 26.4018 22.1425 24.9621C22.1425 23.5224 23.4219 22.3553 25 22.3553Z" fill="#00D8FF"/>
</g>
<defs>
<clipPath id="clip0_257_58">
<rect width="32" height="26" fill="white" transform="translate(9 12)"/>
</clipPath>
</defs>
</svg>
