<svg width="50" height="50" viewBox="0 0 50 50" fill="none" xmlns="http://www.w3.org/2000/svg">
<path d="M0.5 8C0.5 3.85787 3.85786 0.5 8 0.5H42C46.1421 0.5 49.5 3.85786 49.5 8V42C49.5 46.1421 46.1421 49.5 42 49.5H8C3.85787 49.5 0.5 46.1421 0.5 42V8Z" fill="#1B1919" stroke="#353333"/>
<path d="M25.171 26.7002C24.69 26.9212 24.163 27.2092 23.108 27.7882C22.708 28.0132 22.29 28.2382 21.901 28.4502C21.874 28.4232 21.846 28.3892 21.819 28.3612C19.732 26.1312 15.872 24.5562 16.036 21.5612C16.097 20.4702 16.472 17.6062 23.449 14.1282C29.191 11.2982 33.76 12.0822 34.549 13.8212C35.683 16.3002 32.1 20.9132 26.17 21.5822C25.5137 21.7153 24.8359 21.6992 24.1866 21.5351C23.5373 21.371 22.9333 21.0631 22.419 20.6342C22.105 20.2932 22.058 20.2732 21.942 20.3412C21.751 20.4412 21.874 20.7502 21.942 20.9272C22.1682 21.3367 22.4742 21.6968 22.842 21.986C23.2097 22.2752 23.6317 22.4878 24.083 22.6112C26.4166 23.1156 28.8497 22.8746 31.039 21.9222C34.633 20.5312 37.439 16.6642 36.617 13.4222C35.792 10.1352 30.336 9.05117 25.174 10.8852C21.9413 11.9746 18.9545 13.6895 16.384 15.9322C13.54 18.5922 13.09 20.9042 13.274 21.8722C13.936 25.3092 18.674 27.5462 20.574 29.2032C20.474 29.2582 20.39 29.3032 20.315 29.3462C19.367 29.8172 15.753 31.7062 14.852 33.7042C13.829 35.9682 15.016 37.5912 15.8 37.8092C16.9815 38.0922 18.2219 37.9991 19.3479 37.5431C20.474 37.087 21.4295 36.2906 22.081 35.2652C22.6343 34.4148 22.974 33.4435 23.0713 32.4337C23.1687 31.4239 23.0207 30.4055 22.64 29.4652C22.8646 29.286 23.1042 29.1264 23.356 28.9882C23.84 28.7022 24.301 28.4202 24.71 28.2022C26.1104 27.5462 27.6386 27.2085 29.185 27.2132C32.431 27.5952 33.072 29.6202 32.949 30.4732C32.8915 30.7758 32.7698 31.0626 32.5921 31.3143C32.4144 31.5659 32.1849 31.7766 31.919 31.9322C31.694 32.0752 31.619 32.1232 31.639 32.2252C31.666 32.3752 31.775 32.3682 31.966 32.3412C32.4537 32.187 32.8834 31.889 33.1985 31.4862C33.5137 31.0834 33.6997 30.5946 33.732 30.0842C33.832 28.0842 31.925 25.8902 28.549 25.9102C27.5381 25.9119 26.5373 26.1113 25.603 26.4972C25.453 26.5592 25.3073 26.6258 25.166 26.6972L25.171 26.7002ZM20.346 34.5392C19.268 35.7122 17.768 36.1552 17.12 35.7802C16.42 35.3802 16.697 33.6452 18.02 32.4042C18.8036 31.6982 19.6505 31.0658 20.55 30.5152C20.707 30.4152 20.939 30.2832 21.218 30.1152L21.293 30.0742L21.457 29.9742C21.693 30.7653 21.7144 31.6049 21.5192 32.407C21.324 33.2091 20.9191 33.945 20.346 34.5392Z" fill="#CD6799"/>
</svg>
