<svg width="50" height="50" viewBox="0 0 50 50" fill="none" xmlns="http://www.w3.org/2000/svg">
<path d="M8 0.5H42C46.1421 0.5 49.5 3.85786 49.5 8V42C49.5 46.1421 46.1421 49.5 42 49.5H8C3.85787 49.5 0.5 46.1421 0.5 42V8C0.5 3.85787 3.85786 0.5 8 0.5Z" fill="#1B1919" stroke="#353333"/>
<g clip-path="url(#clip0_637_83)">
<path d="M25.001 14.4004C20.7343 14.4004 18.0685 16.5329 17.001 20.7996C18.6005 18.6669 20.4678 17.8671 22.6005 18.4004C23.8183 18.7039 24.6885 19.5869 25.6523 20.5654C27.2208 22.1571 29.0363 23.9999 33.001 23.9999C37.2675 23.9999 39.9335 21.8671 41.001 17.5994C39.401 19.7332 37.5344 20.5334 35.4013 19.9999C34.1838 19.6961 33.3145 18.8134 32.3495 17.8349C30.782 16.2431 28.967 14.4004 25.001 14.4004ZM17.001 23.9999C12.7345 23.9999 10.0685 26.1326 9.00101 30.4004C10.6008 28.2666 12.4673 27.4664 14.6005 27.9999C15.8183 28.3036 16.6885 29.1864 17.6523 30.1649C19.2208 31.7566 21.0363 33.5994 25.001 33.5994C29.2675 33.5994 31.9335 31.4669 33.001 27.2001C31.401 29.333 29.5344 30.1327 27.4013 29.5994C26.1838 29.2959 25.3145 28.4129 24.3495 27.4344C22.782 25.8426 20.967 23.9999 17.001 23.9999Z" fill="#38BDF8"/>
</g>
<defs>
<clipPath id="clip0_637_83">
<rect width="32" height="32" fill="white" transform="translate(9 8)"/>
</clipPath>
</defs>
</svg>
